<svg viewBox="0 0 34.396 34.396" xmlns="http://www.w3.org/2000/svg"><path d="M72.63 41.366c.062.026.131.044.193.07-1.203-14.095-12.468-25.304-26.591-26.417C42.677 6.219 34.068.002 23.995 0 10.74.003.003 10.744 0 23.995c.002 10.075 6.216 18.68 15.017 22.236 1.113 14.121 12.321 25.391 26.419 26.592-.021-.05-.035-.104-.055-.153 3.583 8.738 12.164 14.899 22.198 14.902 13.252-.003 23.991-10.741 23.991-23.994 0-10.047-6.178-18.638-14.94-22.212Zm-1.99-.72c-.018-.006-.039-.01-.059-.015.02.005.041.009.059.015zM7.315 23.995c.015-9.21 7.469-16.664 16.68-16.684 6.087.014 11.391 3.284 14.304 8.153-11.51 2.264-20.571 11.326-22.836 22.834-4.868-2.912-8.138-8.216-8.148-14.303Zm56.264 56.261c-9.215-.016-16.666-7.467-16.683-16.679.017-9.212 7.468-16.663 16.683-16.681 9.208.018 16.663 7.473 16.679 16.681-.016 9.209-7.471 16.664-16.679 16.679z" transform="rotate(45 10.423 20.004) scale(.30213)" style="fill:#000"/><style>@media (prefers-color-scheme:dark){:root{filter:invert(100%)}}</style></svg>
