<?xml version="1.0" standalone="no"?>
<!DOCTYPE svg PUBLIC "-//W3C//DTD SVG 20010904//EN"
 "http://www.w3.org/TR/2001/REC-SVG-20010904/DTD/svg10.dtd">
<svg version="1.0" xmlns="http://www.w3.org/2000/svg"
 width="700.000000pt" height="700.000000pt" viewBox="0 0 700.000000 700.000000"
 preserveAspectRatio="xMidYMid meet">
<metadata>
Created by potrace 1.14, written by Peter Selinger 2001-2017
</metadata>
<g transform="translate(0.000000,700.000000) scale(0.100000,-0.100000)"
fill="#000000" stroke="none">
<path d="M3428 6695 c-2 -1 -37 -5 -78 -8 -106 -8 -322 -57 -344 -78 -6 -5
-17 -9 -25 -9 -26 0 -235 -108 -313 -162 -333 -231 -572 -605 -623 -978 -3
-25 -8 -53 -11 -62 -8 -27 -7 -286 0 -348 12 -92 42 -220 75 -314 16 -49 27
-94 24 -100 -9 -15 -67 -90 -74 -96 -17 -14 -130 -206 -166 -280 -47 -99 -95
-227 -118 -320 -18 -68 -18 -69 -31 -140 -4 -25 -8 -47 -9 -50 -5 -21 -18
-199 -18 -255 0 -178 39 -436 83 -550 60 -157 79 -202 113 -270 36 -71 141
-233 199 -307 l22 -28 -27 -77 c-85 -246 -102 -507 -51 -788 6 -35 53 -197 64
-220 75 -165 100 -214 157 -299 86 -131 263 -308 392 -395 301 -200 624 -282
988 -248 248 23 517 129 733 290 84 62 259 243 317 328 233 340 317 744 237
1138 -19 93 -52 207 -70 242 -12 24 -11 29 20 65 83 99 196 289 246 414 12 30
26 64 31 75 25 59 71 228 88 330 28 167 30 364 7 540 -5 35 -12 72 -32 174 -3
13 -19 67 -36 120 -65 204 -163 389 -292 556 -27 34 -45 66 -42 75 3 8 17 49
31 90 49 141 78 317 78 475 1 64 -10 194 -18 235 -3 14 -8 39 -10 55 -3 17 -8
38 -11 47 -3 9 -7 27 -9 39 -21 107 -112 308 -202 443 -86 129 -264 308 -391
395 -157 106 -389 204 -537 227 -22 3 -42 7 -45 9 -15 9 -313 28 -322 20z
m254 -465 c525 -93 894 -588 834 -1120 -16 -145 -17 -147 -80 -104 -164 112
-489 226 -712 251 -88 10 -393 10 -459 0 -238 -36 -471 -116 -660 -227 -46
-28 -88 -50 -93 -50 -17 0 -35 132 -34 255 0 78 6 124 28 231 19 93 76 223
143 324 221 336 633 511 1033 440z m-52 -3434 c53 -5 183 -37 225 -55 103 -44
141 -64 215 -113 199 -132 364 -359 417 -573 27 -110 35 -171 35 -270 1 -152
-20 -260 -77 -400 -121 -298 -403 -536 -715 -604 -89 -19 -116 -23 -205 -25
-272 -7 -542 98 -735 286 -63 61 -157 178 -168 208 -3 8 -10 22 -17 30 -22 29
-75 159 -95 237 -126 481 106 977 555 1188 101 47 218 81 315 91 36 3 66 7 67
8 4 3 119 -2 183 -8z"/>
</g>
</svg>
